<?xml version="1.0" encoding="UTF-8" standalone="no"?>
<!-- Created with Inkscape (http://www.inkscape.org/) -->

<svg
   xmlns:dc="http://purl.org/dc/elements/1.1/"
   xmlns:cc="http://creativecommons.org/ns#"
   xmlns:rdf="http://www.w3.org/1999/02/22-rdf-syntax-ns#"
   xmlns:svg="http://www.w3.org/2000/svg"
   xmlns="http://www.w3.org/2000/svg"
   xmlns:sodipodi="http://sodipodi.sourceforge.net/DTD/sodipodi-0.dtd"
   xmlns:inkscape="http://www.inkscape.org/namespaces/inkscape"
   width="512"
   height="512"
   viewBox="0 0 135.46666 135.46667"
   version="1.1"
   id="svg8"
   inkscape:version="0.92.3 (2405546, 2018-03-11)"
   sodipodi:docname="cookiemp-logo.svg"
   inkscape:export-filename="/home/codeah/Workspace/misc/cookiemp-logo/cookiemp-logo-dark-512.png"
   inkscape:export-xdpi="96"
   inkscape:export-ydpi="96">
  <defs
     id="defs2" />
  <sodipodi:namedview
     id="base"
     pagecolor="#ffffff"
     bordercolor="#666666"
     borderopacity="1.0"
     inkscape:pageopacity="0.0"
     inkscape:pageshadow="2"
     inkscape:zoom="1.4142136"
     inkscape:cx="252.06628"
     inkscape:cy="238.53698"
     inkscape:document-units="mm"
     inkscape:current-layer="layer5"
     showgrid="false"
     inkscape:pagecheckerboard="true"
     units="px"
     showguides="false"
     inkscape:window-width="1863"
     inkscape:window-height="1025"
     inkscape:window-x="57"
     inkscape:window-y="27"
     inkscape:window-maximized="1" />
  <metadata
     id="metadata5">
    <rdf:RDF>
      <cc:Work
         rdf:about="">
        <dc:format>image/svg+xml</dc:format>
        <dc:type
           rdf:resource="http://purl.org/dc/dcmitype/StillImage" />
        <dc:title />
      </cc:Work>
    </rdf:RDF>
  </metadata>
  <g
     inkscape:groupmode="layer"
     id="layer4"
     inkscape:label="Base"
     style="display:inline"
     sodipodi:insensitive="true">
    <g
       inkscape:label="Background"
       inkscape:groupmode="layer"
       id="layer1"
       transform="translate(0,-161.53332)">
      <circle
         style="opacity:0.98999999;fill:#dba280;fill-opacity:1;stroke:#767770;stroke-width:0;stroke-linecap:butt;stroke-linejoin:miter;stroke-miterlimit:4;stroke-dasharray:none;stroke-dashoffset:0;stroke-opacity:1;paint-order:normal"
         id="path815"
         cx="67.73333"
         cy="229.26665"
         r="67.73333" />
    </g>
    <g
       inkscape:groupmode="layer"
       id="layer2"
       inkscape:label="Outline">
      <circle
         style="opacity:0.98999999;fill:#80563d;fill-opacity:0;stroke:#854b3c;stroke-width:4.97631788;stroke-linecap:butt;stroke-linejoin:miter;stroke-miterlimit:4;stroke-dasharray:none;stroke-dashoffset:0;stroke-opacity:1;paint-order:normal"
         id="path815-3"
         cx="67.73333"
         cy="67.733337"
         r="65.245171" />
    </g>
  </g>
  <g
     inkscape:groupmode="layer"
     id="layer3"
     inkscape:label="Chocolate chips"
     style="display:inline"
     sodipodi:insensitive="true">
    <path
       style="opacity:0.98999999;fill:#864b3d;fill-opacity:1;stroke:#854b3c;stroke-width:0;stroke-linecap:butt;stroke-linejoin:miter;stroke-miterlimit:4;stroke-dasharray:none;stroke-dashoffset:0;stroke-opacity:1;paint-order:normal"
       d="m 32.894528,36.268443 c -1.644502,2.257254 -4.389705,3.116172 -6.71318,1.518539 -2.323474,-1.597633 -2.873889,-4.722636 -1.229387,-6.97989 1.644501,-2.257254 6.067636,-4.447971 8.391111,-2.850338 2.323474,1.597632 1.195958,6.054434 -0.448544,8.311689 z"
       id="path845"
       inkscape:connector-curvature="0"
       sodipodi:nodetypes="sssss" />
    <path
       style="opacity:0.98999999;fill:#864b3d;fill-opacity:1;stroke:#854b3c;stroke-width:0;stroke-linecap:butt;stroke-linejoin:miter;stroke-miterlimit:4;stroke-dasharray:none;stroke-dashoffset:0;stroke-opacity:1;paint-order:normal"
       d="m 12.35058,49.894396 c 0.678155,-3.917838 3.608939,-6.681732 7.526779,-6.003579 3.917838,0.678152 6.544122,4.40394 5.865968,8.321779 -0.678151,3.917839 -4.901453,9.418367 -8.819293,8.740213 -3.917838,-0.678153 -5.251608,-7.140573 -4.573454,-11.058413 z"
       id="path845-6"
       inkscape:connector-curvature="0"
       sodipodi:nodetypes="sssss" />
    <path
       style="opacity:0.98999999;fill:#864b3d;fill-opacity:1;stroke:#854b3c;stroke-width:0;stroke-linecap:butt;stroke-linejoin:miter;stroke-miterlimit:4;stroke-dasharray:none;stroke-dashoffset:0;stroke-opacity:1;paint-order:normal"
       d="m 21.945809,91.012096 c 3.497095,-2.787632 8.02621,-2.922126 10.813846,0.574969 2.787633,3.497093 2.212501,8.591875 -1.284594,11.379505 -3.497093,2.78763 -11.157445,4.25759 -13.945079,0.7605 -2.787634,-3.4971 0.918731,-9.92734 4.415827,-12.714974 z"
       id="path845-6-7"
       inkscape:connector-curvature="0"
       sodipodi:nodetypes="sssss" />
    <path
       style="opacity:0.98999999;fill:#864b3d;fill-opacity:1;stroke:#854b3c;stroke-width:0;stroke-linecap:butt;stroke-linejoin:miter;stroke-miterlimit:4;stroke-dasharray:none;stroke-dashoffset:0;stroke-opacity:1;paint-order:normal"
       d="m 62.153699,113.38749 c 2.553725,-3.53023 6.769392,-4.84005 10.299626,-2.28633 3.53023,2.55373 4.321846,7.48575 1.768123,11.01597 -2.553718,3.53024 -9.359228,6.91174 -12.889465,4.35801 -3.530226,-2.55371 -1.732006,-9.55741 0.821716,-13.08765 z"
       id="path845-6-7-5-3"
       inkscape:connector-curvature="0"
       sodipodi:nodetypes="sssss" />
    <path
       style="opacity:0.98999999;fill:#864b3d;fill-opacity:1;stroke:#854b3c;stroke-width:0;stroke-linecap:butt;stroke-linejoin:miter;stroke-miterlimit:4;stroke-dasharray:none;stroke-dashoffset:0;stroke-opacity:1;paint-order:normal"
       d="m 93.165691,110.40055 c -2.609116,-2.53337 -3.184603,-6.17272 -0.651238,-8.78185 2.533368,-2.609119 6.702166,-2.670529 9.311287,-0.13717 2.60912,2.53336 4.58465,8.56072 2.05129,11.16984 -2.53335,2.60911 -8.102214,0.28254 -10.711344,-2.2508 z"
       id="path845-6-7-5-3-5"
       inkscape:connector-curvature="0"
       sodipodi:nodetypes="sssss" />
    <path
       style="opacity:0.98999999;fill:#864b3d;fill-opacity:1;stroke:#854b3c;stroke-width:0;stroke-linecap:butt;stroke-linejoin:miter;stroke-miterlimit:4;stroke-dasharray:none;stroke-dashoffset:0;stroke-opacity:1;paint-order:normal"
       d="m 83.877822,29.899069 c -2.609116,-2.53337 -3.184603,-6.17272 -0.651238,-8.781852 2.533368,-2.60912 6.702166,-2.67053 9.311286,-0.13717 2.609116,2.533362 4.584646,8.560722 2.05129,11.169842 -2.53335,2.60911 -8.102212,0.28254 -10.711343,-2.2508 z"
       id="path845-6-7-5-3-5-6"
       inkscape:connector-curvature="0"
       sodipodi:nodetypes="sssss" />
    <path
       style="opacity:0.98999999;fill:#864b3d;fill-opacity:1;stroke:#854b3c;stroke-width:0;stroke-linecap:butt;stroke-linejoin:miter;stroke-miterlimit:4;stroke-dasharray:none;stroke-dashoffset:0;stroke-opacity:1;paint-order:normal"
       d="m 53.053284,29.374962 c -5.244846,-1.108195 -8.823139,-5.194038 -7.714963,-10.438899 1.108191,-5.244849 6.258328,-8.598265 11.503172,-7.490087 5.244839,1.108187 12.446027,7.071342 11.337854,12.316181 -1.108175,5.244822 -9.881213,6.720979 -15.126054,5.612834 z"
       id="path845-6-7-5-3-5-6-2"
       inkscape:connector-curvature="0"
       sodipodi:nodetypes="sssss" />
    <path
       style="display:inline;opacity:0.98999999;fill:#864b3d;fill-opacity:1;stroke:#854b3c;stroke-width:0;stroke-linecap:butt;stroke-linejoin:miter;stroke-miterlimit:4;stroke-dasharray:none;stroke-dashoffset:0;stroke-opacity:1;paint-order:normal"
       d="m 115.12895,88.820778 c -3.09127,4.089252 -8.08242,5.525571 -12.17169,2.434311 -4.089269,-3.091265 -4.898299,-8.912212 -1.80704,-13.001469 3.09126,-4.089251 11.18006,-7.898274 15.26932,-4.807025 4.08924,3.091243 1.80066,11.284918 -1.29056,15.374186 z"
       id="path845-6-7-5-3-5-6-1"
       inkscape:connector-curvature="0"
       sodipodi:nodetypes="sssss" />
    <path
       style="display:inline;opacity:0.98999999;fill:#864b3d;fill-opacity:1;stroke:#854b3c;stroke-width:0;stroke-linecap:butt;stroke-linejoin:miter;stroke-miterlimit:4;stroke-dasharray:none;stroke-dashoffset:0;stroke-opacity:1;paint-order:normal"
       d="m 108.87446,28.464078 c 3.94236,-0.547927 7.47126,1.403798 8.01919,5.346154 0.54794,3.942355 -2.20377,7.582439 -6.14612,8.130379 -3.94234,0.547932 -10.47466,-1.801811 -11.022603,-5.744157 -0.547934,-3.942331 5.207183,-7.184431 9.149523,-7.732393 z"
       id="path845-6-7-5-3-5-6-1-7"
       inkscape:connector-curvature="0"
       sodipodi:nodetypes="sssss" />
    <path
       style="display:inline;opacity:0.98999999;fill:#864b3d;fill-opacity:1;stroke:#854b3c;stroke-width:0;stroke-linecap:butt;stroke-linejoin:miter;stroke-miterlimit:4;stroke-dasharray:none;stroke-dashoffset:0;stroke-opacity:1;paint-order:normal"
       d="m 58.724671,43.39509 c 1.96111,1.773253 2.473233,4.402589 0.699984,6.3637 -1.773245,1.961114 -4.800532,2.113408 -6.761644,0.340165 -1.961104,-1.773241 -3.552123,-6.101442 -1.778882,-8.062554 1.773238,-1.961099 5.879427,-0.414552 7.840546,1.358676 z"
       id="path845-6-7-5-3-5-6-1-7-0"
       inkscape:connector-curvature="0"
       sodipodi:nodetypes="sssss" />
  </g>
  <g
     inkscape:groupmode="layer"
     id="layer5"
     inkscape:label="MP"
     style="display:inline;opacity:1"
     sodipodi:insensitive="true">
    <text
       xml:space="preserve"
       style="font-style:normal;font-variant:normal;font-weight:normal;font-stretch:normal;font-size:70.55555725px;line-height:1000;font-family:'Lobster 1.3';-inkscape-font-specification:'Lobster 1.3, ';letter-spacing:0px;word-spacing:0px;fill:#512e25;fill-opacity:1;stroke:none;stroke-width:0.26458332"
       x="17.809765"
       y="94.191666"
       id="text828"
       inkscape:export-xdpi="96"
       inkscape:export-ydpi="96"><tspan
         sodipodi:role="line"
         id="tspan826"
         x="17.809765"
         y="94.191666"
         style="font-size:70.55555725px;fill:#512e25;fill-opacity:1;stroke-width:0.26458332">MP</tspan></text>
  </g>
</svg>
